<svg version="1.1" xmlns="http://www.w3.org/2000/svg" style="display: block;" viewBox="0 0 2048 1365" width="1248" height="832" preserveAspectRatio="xMidYMid meet">
<defs>
	<linearGradient id="Gradient1" gradientUnits="userSpaceOnUse" x1="562.721" y1="851.758" x2="529.6" y2="846.295">
		<stop class="stop0" offset="0" stop-opacity="0" stop-color="rgb(255,255,255)"/>
		<stop class="stop1" offset="1" stop-opacity="0.0588235" stop-color="rgb(217,220,221)"/>
	</linearGradient>
</defs>
<path transform="translate(0,0)" fill="rgb(56,54,54)" d="M 999.219 445.34 C 1009.11 438.611 1049.79 417.223 1054.27 411.453 C 1073.32 386.913 1091.81 356.785 1111.04 331.806 C 1129.53 309.255 1123.22 281.151 1135.49 261.591 C 1172.17 203.125 1210.9 144.018 1234.81 78.8843 C 1236.76 73.5679 1238.72 63.6469 1244.18 62.6416 C 1248.13 67.686 1239.35 85.1527 1237.02 90.8005 C 1219.15 133.775 1197.8 175.222 1173.19 214.728 C 1166.99 224.616 1142.31 260.335 1139.28 268.709 C 1132.94 286.223 1125.01 325.456 1120.91 345.061 C 1118.92 354.552 1118.11 371.293 1115.58 381.133 C 1204.57 343.898 1278.59 321.609 1375.54 312.293 C 1409.95 308.986 1420.52 302.969 1453.22 315.538 C 1506.55 336.034 1533.88 366.302 1565.83 412.611 C 1591.17 398.88 1616.36 384.889 1641.4 370.642 C 1656.08 362.257 1678.25 350.01 1691.05 339.08 C 1710.3 343.442 1737.25 351.092 1756.42 356.831 C 1773.58 336.238 1791.88 310.951 1809.92 291.731 C 1818.21 282.9 1842.4 267.196 1852.48 258.194 C 1855.7 255.316 1869.71 243.623 1873 242.481 L 1875.35 242.818 C 1875.77 243.477 1877.18 245.063 1876.53 245.766 C 1857.96 265.871 1831.03 280.013 1811.59 299.461 C 1793.58 317.486 1777.06 346.635 1758.78 363.469 C 1738.17 358.306 1713.83 352.381 1693.77 346.012 C 1674.56 360.481 1658.36 376.297 1640.75 392.554 L 1584.43 443.977 C 1622.58 519.464 1652.86 641.577 1597.88 716.053 L 1841.44 716.085 C 1880.44 716.079 1919.43 716.032 1958.43 716.111 C 1962.13 716.119 1970.51 715.697 1973.1 717.828 C 1974.51 722.926 1973.99 764.12 1973.99 771.322 L 1974.02 899.566 L 1973.81 1159.52 L 1973.84 1241.39 C 1973.86 1255.76 1974.39 1274.31 1973.46 1288.45 C 1956.02 1289.51 1932.64 1288.86 1914.9 1288.86 L 1810.47 1288.82 L 1473.15 1288.95 C 1480.81 1310.23 1493.42 1343.39 1499.68 1365 L 1493.6 1365 L 1381.74 1365 L 1375.83 1365 C 1366.63 1339.82 1357.81 1314.51 1349.37 1289.07 L 1094.77 1288.92 L 1018.77 1288.89 C 1007.78 1288.86 986.824 1288.23 976.675 1289.24 C 974.765 1292.79 975.164 1293.55 972.035 1294.92 L 969.739 1294.35 C 968.696 1292.27 968.48 1291.7 967.758 1289.48 C 961.806 1288.59 948.513 1288.87 941.858 1288.88 L 893.758 1289.02 L 730.574 1288.88 L 288.914 1288.84 L 145.075 1288.85 C 121.212 1288.86 94.2669 1289.47 70.7082 1288.83 C 69.5444 1242.97 70.2628 1196.06 70.4965 1150.1 C 71.2308 1005.64 69.0294 860.597 70.7462 716.191 L 714.784 716.049 L 688.15 687.973 C 655.278 687.056 621.667 685.6 588.878 685.14 C 583.177 689.528 577.26 694.233 571.503 698.491 C 559.571 694.162 474.693 666.38 471.469 663.501 L 471.101 661.458 C 474.403 658.237 511.996 657.696 519.208 657.354 L 617.507 653.005 C 613.516 645.92 588.366 603.372 588.882 598.288 C 592.143 596.797 593.245 597.206 596.878 598.582 C 638.924 614.506 680.978 631.875 723.255 647.075 C 714.562 625.006 705.454 603.057 696.941 580.936 C 656.562 556.439 616.053 532.156 575.416 508.09 C 535.481 484.192 503.913 462.201 460.928 444.971 C 444.035 438.2 323.86 387.554 320.077 383.233 L 320.611 380.816 C 327.08 378.606 342.328 387.317 349.267 390.266 L 401.134 412.449 C 426.789 423.47 452.595 434.697 478.452 445.228 C 496.381 452.53 509.576 460.756 526.095 470.758 L 579.075 502.756 C 618.128 526.099 666.182 552.714 703.79 577.412 C 724.58 577.045 758.357 577.269 778.345 575.238 L 715.464 510.904 C 710.721 506.004 694.606 492.034 693.206 486.618 L 694.084 485.208 C 697.154 484.504 697.521 484.748 700.822 486.401 C 714.368 493.185 727.762 501.59 741.036 508.832 C 770.52 524.919 800.217 542.8 829.919 558.268 C 818.422 522.812 805.794 487.608 793.872 452.206 C 786.183 429.375 779.15 403.936 768.634 382.348 C 764.377 373.609 758.802 364.304 754.121 355.723 C 743.22 335.789 732.424 315.798 721.732 295.751 C 716.811 286.563 711.815 277.268 707.011 268.025 C 703.859 261.962 692.883 247.945 695.43 241.176 C 700.292 241.748 708.783 253.812 711.757 258.368 C 733.074 291.032 759.374 322.025 779.454 355.378 C 802.6 393.822 823.845 433.542 846.267 472.402 C 858.082 492.611 874.872 513.973 887.454 534.887 C 904.175 518.177 918.067 507.336 934.689 492.097 C 943.099 452.536 955.861 407.257 965.756 367.614 C 971.445 344.163 977.34 320.763 983.442 297.416 C 985.154 290.665 989.791 264.01 994.889 261.187 L 996.41 264.543 L 996.509 264.075 C 996.897 276.774 994.878 293.134 993.675 305.982 C 990.067 344.533 988.852 384.066 984.83 422.492 C 988.943 423.67 993.294 424.746 997.178 426.476 C 998.49 434.03 998.986 437.522 999.219 445.34 z M 77.0285 1282.54 C 156.722 1281.34 239.31 1282.26 319.235 1282.27 L 792.645 1282.29 C 850.507 1282.21 909.722 1282.93 967.441 1282.05 C 964.757 1260.05 958.856 1211.57 958.653 1190.47 C 966.482 1189.4 995.776 1184.44 1001.62 1186.56 C 1004.31 1192.62 981.197 1269.33 978.023 1282.39 C 1100.04 1282.45 1224.91 1283.59 1346.78 1282.18 L 1230.28 948.164 C 1189.16 957.419 1149.07 965.061 1106.98 968.296 C 1101.44 968.722 1095.54 969.22 1090.01 969.83 C 1093.75 983.608 1099.23 1005.43 1103.73 1018.34 C 1106.29 1025.69 1124.06 1050.56 1129.49 1058.14 C 1146.72 1059.17 1164 1059.33 1181.25 1058.65 C 1195.05 1075.18 1208.77 1091.8 1222.38 1108.49 C 1226.92 1114.02 1244.11 1132.78 1244.24 1138.33 C 1242.24 1139.69 1243.08 1139.34 1240.04 1138.9 C 1236.22 1135.79 1223.93 1120.38 1220.25 1115.95 L 1178.45 1065.39 C 1160.13 1069.5 1140.37 1073.56 1122.5 1078.84 L 1063.37 1008.48 C 1054.6 997.982 1042.03 983.62 1034.25 972.913 L 1010.39 973.194 C 1006.46 980.704 1001.98 988.816 998.271 996.358 C 1008.23 1021.02 1019.41 1044.62 1031.35 1068.33 C 1033.99 1073.57 1036.62 1094.77 1037.74 1101.87 L 1045.09 1148 C 1047.45 1162.64 1058.02 1213.27 1056.48 1224.28 L 1055.43 1225.06 C 1046.22 1214.58 1040.08 1141.68 1034.2 1126.25 C 1027.99 1109.95 1011.46 1079.07 1002.97 1063.64 C 992.5 1043.12 981.922 1022.65 971.241 1002.23 C 966.207 992.63 959.439 978.777 953.752 970.073 C 937.965 996.365 921.922 1026.37 907.052 1053.37 C 921.851 1057.97 934.85 1062.11 949.368 1067.57 C 943.175 1082.63 931.364 1097.89 924.401 1112.39 C 920.788 1119.91 917.062 1136.73 914.847 1145.6 L 902.16 1196.68 C 900.318 1204.09 896.949 1224.86 891.926 1227.88 L 889.784 1227.3 C 888.293 1223.41 887.39 1207.61 887.12 1202.87 C 884.052 1149.1 876.714 1096.42 868.591 1043.24 C 867.632 1036.96 865.341 1024.59 866.768 1018.64 L 869.133 1017.69 C 875.437 1020.66 887.816 1037.45 894.012 1043.56 C 898.381 1024.79 906.137 1002.18 908.43 983.917 C 909.301 976.979 906.944 952.087 906.318 944.597 C 886.213 945.863 856.463 949.003 837.163 949.151 C 828.863 962.332 820.408 975.415 811.8 988.397 C 811.85 1008.69 812.206 1030.36 811.458 1050.54 C 790.497 1057.34 769.283 1063.34 747.862 1068.5 C 731.774 1086.29 715.858 1104.23 700.115 1122.32 C 693.596 1129.77 678.465 1149.85 669.917 1152.38 L 669.097 1150.29 C 674.358 1141.17 682.891 1132.52 689.856 1124.52 C 715.233 1095.38 741.158 1067.42 764.852 1036.88 C 771.896 1034.39 776.551 1033.51 783.792 1032.04 C 789.35 1004.64 792.789 976.798 797.76 949.318 C 801.011 931.35 796.685 921.33 793.831 904.214 C 789.69 879.387 782.237 853.437 779.398 828.547 C 771.119 838.442 751.14 868.792 743.055 873.551 L 740.903 873.49 C 739.02 869.735 746.758 796.448 747.487 785.791 L 693.706 800.844 C 681.253 804.298 667.06 807.865 655.094 812.64 C 633.862 820.547 608.966 838.825 588.072 845.692 C 564.32 852.678 537.194 861.863 513.498 867.927 C 477.039 877.257 467.827 883.1 440.559 907.376 C 419.735 925.916 358.471 972.021 330.212 975.803 L 329.334 974.449 C 342.484 961.83 370.798 952.235 387.088 940.928 C 416.545 920.482 443.195 894.879 472.47 874.344 C 481.459 868.038 499.37 863.716 509.264 858.058 C 536.941 845.217 565.578 833.647 593.081 820.517 C 608.873 812.979 626.314 801.868 641.611 792.994 C 673.183 774.781 704.534 756.187 735.658 737.219 C 730.419 732.364 726.169 728.548 721.533 723.038 C 626.287 721.906 529.328 722.827 433.942 722.811 L 76.8943 722.87 L 77.0285 1282.54 z M 1540.35 773.985 L 1617.43 775.93 C 1632.1 776.209 1659.96 776.063 1673.59 777.932 C 1678.15 778.557 1705.97 796.976 1711.89 800.729 L 1773.63 839.493 L 1822.66 826.862 C 1830.83 824.726 1843.97 818.944 1852.19 822.209 L 1852.24 824.145 L 1853.16 822.919 C 1848.57 827.857 1784.57 842.458 1772.58 846.416 C 1737.12 826.899 1704.68 820.319 1665.76 810.89 C 1658.07 809.027 1651.01 801.096 1641.32 800.379 C 1599.21 797.263 1555.97 799.691 1513.98 797.541 C 1500.67 807.432 1487.98 818.255 1474.63 828.123 C 1434.59 857.715 1381.88 892.05 1335.98 911.971 C 1347.82 938.923 1361.34 979.313 1371.49 1007.34 L 1435.29 1183.75 C 1446.88 1215.96 1458.79 1250.79 1471.17 1282.55 L 1967.12 1282.06 L 1967.12 722.872 L 1592.44 722.828 C 1575.52 740.324 1558.15 757.382 1540.35 773.985 z M 978.444 426.813 C 979.389 398.25 983.005 369.023 985.195 340.467 C 985.542 335.948 988.21 309.797 987.745 306.765 C 971.664 364.921 959.007 428.91 942.525 485.838 C 946.091 483.138 949.942 480.331 953.415 477.555 C 966.182 468.191 980.481 457.602 993.707 448.932 L 991.503 431.445 C 987.292 429.956 982.564 428.406 978.444 426.813 z M 754.933 1060.63 C 771.099 1055.73 788.779 1050.86 805.065 1046.36 C 805.344 1026.01 805.866 1006.67 805.868 986.086 C 815.157 972.141 823.944 956.805 833.475 943.271 C 844.936 942.132 903.985 937.196 911.112 938.828 C 913.708 943.43 912.825 950.458 913.659 955.676 C 919.331 991.132 906.268 1020.48 897.465 1055.2 C 890.005 1049.62 879.415 1037.3 873.039 1030.18 C 878.215 1071.21 886.247 1111.85 889.475 1153.06 C 890.887 1171.09 892.074 1189.04 893.277 1207.08 L 908.142 1147.18 C 910.49 1137.78 914.911 1117.63 918.754 1109.77 C 924.411 1098.18 934.291 1082.43 941.086 1071.07 C 928.807 1067.16 910.001 1060.48 898.034 1058.33 C 899.933 1052.35 910.399 1032.19 913.966 1027.13 C 919.507 1019.28 948.231 961.069 954.083 960.095 C 962.938 967.84 1022.45 1087.6 1032.01 1105.69 C 1028.9 1089.4 1029.75 1076.53 1021.51 1061.56 C 1010.15 1040.95 1000.27 1018.48 990.93 996.866 C 994.067 989.266 999.085 980.939 1003.16 973.685 C 972.208 962.464 939.784 935.821 918.029 911.557 C 856.04 842.42 818.052 744.908 823.089 651.59 C 824.372 635.732 827.561 600.141 837.096 587.286 C 846.427 574.707 871.101 549.975 882.965 539.243 C 840.945 480.917 808.652 418.168 772.493 356.297 C 762.41 339.044 748.088 320.476 736.374 304.073 C 733.533 299.671 729.697 293.922 725.799 290.349 L 735.953 308.763 C 750.128 334.347 765.478 362.154 778.626 388.301 C 781.6 394.214 790.065 420.737 792.583 428.108 L 818.245 503.762 C 822.817 517.376 836.322 553.632 838.729 564.742 L 838.025 567.185 C 833.918 568.805 827.053 564.495 823.096 562.253 C 787.001 541.804 750.061 522.147 714.444 500.903 C 723.298 509.606 787.257 572.397 788.096 578.779 L 787.396 580.515 C 781.003 582.393 717.263 583.718 705.156 584.094 C 709.228 594.317 732.099 648.478 731.12 654.171 C 722.916 656.65 610.47 611.055 597.698 605.69 C 608.688 622.621 617.639 641.109 628.443 658.177 C 619.424 665.502 607.644 672.57 597.697 678.888 C 626.306 680.616 662.014 681.033 690.895 681.319 C 697.457 688.381 742.779 734.059 743.766 737.681 C 736.521 747.735 619.665 812.207 599.535 824.335 C 593.424 828.017 565.943 838.397 557.749 843.341 C 551.742 845.118 525.395 856.918 519.155 860.239 C 532.657 856.329 547.952 852.262 561.003 847.423 C 590.97 839.406 604.364 831.316 631.85 816.99 C 640.094 813.569 651.295 806.006 659.731 803.654 C 688.746 795.562 717.662 787.138 746.706 779.202 C 749.608 778.409 750.811 778.512 753.417 779.742 C 754.964 786.907 748.007 849.177 746.857 860.645 C 752.705 853.033 774.748 822.149 780.4 818.239 C 781.79 818.57 783.352 818.616 783.854 820.437 C 786.803 831.126 789.336 847.783 791.355 858.505 C 793.969 872.665 796.779 886.789 799.786 900.872 C 801.907 910.901 804.756 921.363 805.476 931.593 C 806.375 944.352 793.498 1020.09 789.484 1036.63 L 769.618 1042.48 C 765.523 1046.74 758.826 1055.68 754.933 1060.63 z M 1723.38 818.768 L 1734.7 822.208 C 1714.93 810.005 1692.08 794.695 1672.63 783.289 L 1532.64 780.079 L 1521.27 791.015 L 1604.13 792.606 C 1616.69 792.863 1631.22 792.655 1643.59 794.04 C 1650.68 794.832 1661.27 802.681 1667.94 804.604 C 1686.07 809.833 1705.2 813.703 1723.38 818.768 z M 518.76 673.264 C 535.952 679.198 553.175 685.041 570.429 690.794 C 584.996 679.508 600.02 669.582 615.353 659.388 C 613.752 659.281 613.564 659.102 612.055 659.444 L 493.158 664.88 L 518.76 673.264 z M 1581.36 437.758 L 1630.33 393.871 C 1635.1 389.61 1652.81 374.165 1655.6 369.999 L 1655.56 369.177 C 1626.69 385.158 1598.49 402.335 1569.24 418.273 C 1572.49 422.404 1573.81 424.749 1576.4 429.35 L 1581.36 437.758 z M 1115.64 335.821 C 1111.3 341.99 1067.62 402.496 1067.97 405.045 C 1080.83 398.267 1096.11 390.544 1109.47 384.798 C 1109.92 378.245 1116.07 337.499 1115.64 335.821 z M 1079.61 970.495 C 1067.26 971.024 1052.99 972.046 1040.79 972.153 C 1066.38 1000.22 1092.5 1033.29 1117.22 1062.53 L 1124.62 1071.52 L 1148.95 1065.05 C 1141.16 1064.62 1133.37 1064.09 1125.57 1064.14 C 1116.2 1050.05 1105.08 1035.48 1097.56 1020.56 C 1092.56 1010.66 1087.51 977.244 1082.82 970.59 L 1079.61 970.495 z"/>
<path transform="translate(0,0)" fill="rgb(113,87,64)" d="M 1256.92 1004.35 C 1281.34 976.213 1313.95 965.835 1350.34 968.274 L 1450.96 1246.29 L 1479.12 1325.13 C 1482.6 1334.78 1491.12 1356.19 1493.6 1365 L 1381.74 1365 C 1372.97 1333.74 1357.14 1294.45 1346.78 1263.24 C 1318.09 1176.81 1285.78 1090.66 1256.92 1004.35 z"/>
<path transform="translate(0,0)" fill="rgb(89,64,42)" d="M 1226.89 917.469 L 1227.36 916.477 C 1235.71 898.928 1250.12 889.418 1268.17 883.159 C 1278.37 878.504 1314.34 874.357 1319.94 888.029 C 1330.14 912.91 1341.67 942.557 1350.34 968.274 C 1313.95 965.835 1281.34 976.213 1256.92 1004.35 C 1253.37 996.183 1248.37 980.38 1245.31 971.5 C 1239.34 954.217 1231.89 934.873 1226.89 917.469 z"/>
<path transform="translate(0,0)" fill="rgb(56,54,54)" d="M 712.066 900.452 C 718.797 898.661 725.978 900.077 731.525 904.29 C 737.073 908.502 740.365 915.039 740.447 922.004 C 740.565 932.016 734.076 940.91 724.505 943.852 C 717.613 945.97 710.123 944.669 704.348 940.35 C 698.574 936.031 695.21 929.214 695.295 922.003 C 695.415 911.87 702.272 903.058 712.066 900.452 z"/>
<path transform="translate(0,0)" fill="rgb(100,99,99)" d="M 714.177 906.7 C 722.544 904.797 730.918 909.853 733.129 918.144 C 735.341 926.435 730.598 934.99 722.395 937.507 C 716.811 939.22 710.738 937.745 706.562 933.662 C 702.386 929.579 700.775 923.54 702.362 917.92 C 703.95 912.299 708.482 907.995 714.177 906.7 z"/>
<path transform="translate(0,0)" fill="rgb(56,54,54)" d="M 1086.44 1085.52 C 1097.96 1082.34 1109.89 1089.02 1113.2 1100.5 C 1116.51 1111.98 1109.95 1123.99 1098.51 1127.41 C 1091 1129.66 1082.85 1127.71 1077.18 1122.28 C 1071.52 1116.86 1069.2 1108.82 1071.12 1101.21 C 1073.03 1093.6 1078.88 1087.61 1086.44 1085.52 z"/>
<path transform="translate(0,0)" fill="rgb(100,99,99)" d="M 1088.59 1091.64 C 1093.95 1090.3 1099.61 1091.96 1103.4 1095.97 C 1107.18 1099.99 1108.51 1105.73 1106.87 1111 C 1105.23 1116.27 1100.88 1120.24 1095.48 1121.4 C 1087.33 1123.14 1079.29 1118.02 1077.41 1109.9 C 1075.53 1101.78 1080.51 1093.66 1088.59 1091.64 z"/>
<path transform="translate(0,0)" fill="rgb(56,54,54)" d="M 998.758 1113.56 C 1005.89 1111.04 1013.71 1114.82 1016.16 1121.98 C 1018.61 1129.14 1014.75 1136.92 1007.57 1139.3 C 1000.49 1141.65 992.831 1137.86 990.413 1130.79 C 987.995 1123.73 991.719 1116.04 998.758 1113.56 z"/>
<path transform="translate(0,0)" fill="rgb(100,99,99)" d="M 1001.89 1119.34 C 1004.45 1118.72 1007.15 1119.52 1008.96 1121.45 C 1010.77 1123.37 1011.4 1126.12 1010.61 1128.64 C 1009.82 1131.16 1007.73 1133.06 1005.15 1133.61 C 1001.24 1134.45 997.377 1131.99 996.484 1128.09 C 995.592 1124.18 997.997 1120.29 1001.89 1119.34 z"/>
<path transform="translate(0,0)" fill="rgb(56,54,54)" d="M 966.293 1048.59 C 971.669 1046.37 977.83 1048.91 980.084 1054.27 C 982.338 1059.63 979.839 1065.81 974.49 1068.09 C 969.095 1070.4 962.853 1067.88 960.579 1062.47 C 958.306 1057.06 960.87 1050.83 966.293 1048.59 z"/>
<path transform="translate(0,0)" fill="rgb(100,99,99)" d="M 968.798 1053.63 C 971.272 1052.96 973.825 1054.39 974.541 1056.85 C 975.257 1059.31 973.872 1061.89 971.426 1062.66 C 969.801 1063.16 968.029 1062.75 966.793 1061.58 C 965.556 1060.41 965.048 1058.67 965.464 1057.02 C 965.88 1055.37 967.155 1054.07 968.798 1053.63 z"/>
<path transform="translate(0,0)" fill="rgb(56,54,54)" d="M 1465.9 948.396 C 1475.51 945.997 1485.28 951.723 1487.89 961.284 C 1490.49 970.845 1484.98 980.736 1475.48 983.545 C 1469.14 985.417 1462.3 983.717 1457.57 979.102 C 1452.85 974.487 1451 967.678 1452.73 961.306 C 1454.45 954.934 1459.49 949.995 1465.9 948.396 z"/>
<path transform="translate(0,0)" fill="rgb(100,99,99)" d="M 1466.27 954.787 C 1472.5 952.647 1479.29 955.927 1481.48 962.136 C 1483.67 968.345 1480.45 975.161 1474.26 977.405 C 1467.99 979.676 1461.08 976.405 1458.86 970.123 C 1456.64 963.84 1459.97 956.953 1466.27 954.787 z"/>
<path transform="translate(0,0)" fill="rgb(196,163,123)" d="M 934.217 544.365 C 934.145 533.446 945.808 491.841 953.998 485.483 C 1033.2 424.003 1138.45 371.188 1233.73 345.061 C 1196.83 417.938 1211.43 513.504 1235.93 588.008 C 1248.64 625.853 1264.96 662.384 1284.68 697.096 C 1295.14 715.323 1306.75 732.527 1319.04 749.528 C 1319.45 750.089 1319.41 751.271 1319.41 751.917 L 1320.31 752.763 C 1323.41 754.191 1325.66 757.623 1327.84 760.282 C 1356.68 795.534 1394.02 830.314 1436.59 848.306 C 1403.85 869.829 1369.65 889.037 1334.23 905.789 C 1330.19 894.811 1327.39 881.2 1315.86 876.369 C 1300.04 869.732 1279.28 871.826 1263.63 878.054 C 1241.87 886.717 1213.62 903.711 1223.84 930.881 C 1225.25 934.557 1226.69 938.219 1228.17 941.868 C 1205.23 947.526 1175.4 954.298 1151.93 957.479 C 1102.78 938.012 1061.68 901.474 1029.25 860.273 C 1034.08 859.24 1046.2 857.852 1048.8 854.948 C 1042.71 855.435 1034.71 857.518 1028.63 858.972 C 1001.48 824.308 985.85 793.963 967.117 755.12 L 966.212 753.715 C 965.054 747.709 955.969 726.419 953.493 718.849 C 944.266 690.643 935.91 660.433 932.84 630.841 C 930.661 629.511 931.382 630.432 930.625 627.977 L 931.854 626.415 C 931.197 611.127 926.37 556.171 935.879 545.303 L 934.217 544.365 z"/>
<path transform="translate(0,0)" fill="rgb(157,126,93)" d="M 1319.41 751.917 L 1320.31 752.763 C 1323.41 754.191 1325.66 757.623 1327.84 760.282 C 1356.68 795.534 1394.02 830.314 1436.59 848.306 C 1403.85 869.829 1369.65 889.037 1334.23 905.789 C 1330.19 894.811 1327.39 881.2 1315.86 876.369 C 1300.04 869.732 1279.28 871.826 1263.63 878.054 C 1241.87 886.717 1213.62 903.711 1223.84 930.881 C 1225.25 934.557 1226.69 938.219 1228.17 941.868 C 1205.23 947.526 1175.4 954.298 1151.93 957.479 C 1102.78 938.012 1061.68 901.474 1029.25 860.273 C 1034.08 859.24 1046.2 857.852 1048.8 854.948 C 1050.99 855.628 1068.39 851.568 1071.99 850.681 C 1134.53 835.264 1195.93 812.753 1254.8 786.732 C 1259.72 784.555 1274.78 778.305 1276.9 774.905 C 1282.78 770.003 1311.04 756.333 1319.41 751.917 z"/>
<path transform="translate(0,0)" fill="rgb(89,64,42)" d="M 1319.41 751.917 L 1320.31 752.763 C 1313.69 757.285 1283.37 775.872 1276.9 774.905 C 1282.78 770.003 1311.04 756.333 1319.41 751.917 z"/>
<path transform="translate(0,0)" fill="rgb(54,45,34)" d="M 1346.75 831.01 L 1347.75 832.374 C 1344.12 835.296 1319.51 847.997 1314.07 850.738 C 1249.43 883.335 1191.45 905.168 1119.31 914.761 L 1118.64 913.662 C 1121.29 911.096 1131.78 910.962 1136.51 910.221 C 1157.27 906.913 1177.78 902.201 1197.9 896.115 C 1250.69 880.075 1298.54 857.468 1346.75 831.01 z"/>
<path transform="translate(0,0)" fill="rgb(54,45,34)" d="M 1248.77 822.11 L 1249.29 822.727 L 1249.11 824.056 C 1221.66 835.702 1207.15 841.745 1178.2 851.194 L 1177.26 850.304 C 1178.17 848.241 1196.18 843.203 1199.64 842.012 C 1216.46 836.222 1232.46 829.192 1248.77 822.11 z"/>
<path transform="translate(0,0)" fill="rgb(54,45,34)" d="M 1180.84 932.067 C 1181.98 931.924 1182.56 932.095 1183.73 932.226 L 1182.97 933.784 C 1168.66 938.611 1153.84 942.605 1139.29 946.709 L 1137.63 946.41 C 1141 944.098 1174.6 934.018 1180.84 932.067 z"/>
<path transform="translate(0,0)" fill="rgb(0,0,0)" d="M 969.847 697.758 C 974.426 695.418 979.504 692.643 984.295 690.946 C 989.984 703.74 995.428 716.642 1000.62 729.644 C 1002.69 734.95 1005.79 735.325 1006.36 738.202 C 1009.09 751.953 1016.86 766.253 1022.76 779.02 L 1007.41 786.01 C 1001.73 772.946 995.528 757.72 989.101 745.192 L 988.734 743.127 C 982.178 728.114 975.881 712.989 969.847 697.758 z"/>
<path transform="translate(0,0)" fill="rgb(54,45,34)" d="M 931.854 626.415 L 933.002 627.672 C 933.976 627.538 989.903 597.318 995.828 593.134 C 1016.68 578.406 1191.22 507 1203.81 511.856 C 1197.71 515.614 1159.88 526.734 1150.02 530.058 C 1127.76 537.709 1105.69 545.89 1083.81 554.594 C 1030.3 575.584 982.493 602.502 932.84 630.841 C 930.661 629.511 931.382 630.432 930.625 627.977 L 931.854 626.415 z"/>
<path transform="translate(0,0)" fill="rgb(54,45,34)" d="M 934.217 544.365 C 938.673 541.544 956.699 529.701 961.371 529.557 C 957.272 532.453 940.466 543.068 935.879 545.303 L 934.217 544.365 z"/>
<path transform="translate(0,0)" fill="rgb(89,64,42)" d="M 988.734 743.127 L 989.101 745.192 C 981.992 749.142 974.622 752.005 967.117 755.12 L 966.212 753.715 C 972.719 749.722 981.432 747.564 988.734 743.127 z"/>
<path transform="translate(0,0)" fill="rgb(0,0,0)" d="M 1215.63 648.615 C 1213.54 652.152 1219.76 669.116 1219 675.95 C 1218.99 682.492 1218.42 689.645 1213.3 694.564 C 1194.85 712.293 1179.88 684.333 1170.61 671.549 C 1169.33 669.777 1168.41 670.028 1166.52 670.055 C 1160.89 677.352 1176.8 709.745 1160.12 719.673 C 1141.24 730.915 1126.49 703.559 1118.29 691.202 C 1115.46 691.275 1116.31 691.272 1113.58 692.873 C 1111.53 701.83 1126.35 732.633 1109.74 742.028 C 1086.51 755.168 1072.09 714.505 1065.09 712.545 L 1062.93 713.78 C 1062.01 716.067 1064.58 723.68 1065.35 726.316 C 1077.58 768.955 1047.17 781.987 1022 744.072 C 1012.59 729.904 991.227 670.112 1029.92 674.917 C 1042.57 676.488 1054.91 700.706 1061.73 712.325 L 1063.06 712.484 L 1064.6 710.898 C 1065.82 704.795 1060.49 691.263 1059.32 683.825 C 1057.6 672.753 1057.58 652.876 1073.14 651.654 C 1087.22 650.548 1098.76 666.638 1104.78 677.222 C 1106.98 681.077 1108.57 686.976 1111.84 689.976 C 1115.06 690.22 1113.77 690.531 1116.59 688.55 C 1115.54 675.37 1100.67 648.078 1113.98 635.017 C 1138.12 611.342 1153.35 658.284 1163.18 668.508 L 1164.93 668.498 C 1168.69 661.962 1154.19 634.607 1159.24 621.549 C 1173.02 585.986 1199.08 619.117 1208.06 637.356 C 1209.69 641.216 1210.95 645.313 1213.84 648.173 L 1215.63 648.615 z"/>
<path transform="translate(0,0)" fill="rgb(196,163,123)" d="M 1029.33 726.768 C 1025.78 719.782 1020.7 705.241 1028.27 699.521 C 1038.98 698.102 1043.88 710.203 1047.83 718.179 L 1048.45 720.291 C 1050.61 727.763 1054.58 737.992 1045.56 742.058 C 1037.57 741.833 1034.13 735.067 1030.26 729.029 L 1029.33 726.768 z"/>
<path transform="translate(0,0)" fill="rgb(196,163,123)" d="M 1030.26 729.029 C 1032.74 726.109 1044.32 721.881 1048.45 720.291 C 1050.61 727.763 1054.58 737.992 1045.56 742.058 C 1037.57 741.833 1034.13 735.067 1030.26 729.029 z"/>
<path transform="translate(0,0)" fill="rgb(54,45,34)" d="M 1029.33 726.768 C 1035.19 723.602 1041.71 720.881 1047.83 718.179 L 1048.45 720.291 C 1044.32 721.881 1032.74 726.109 1030.26 729.029 L 1029.33 726.768 z"/>
<path transform="translate(0,0)" fill="rgb(196,163,123)" d="M 1181.79 661.996 C 1178.1 654.255 1171.73 640.992 1178.83 633.612 C 1190.85 629.336 1196.79 646.348 1200.09 654.905 L 1200.2 656.101 C 1201.67 662.388 1203.31 666.571 1199.96 672.259 C 1191.64 678.125 1186.64 669.56 1182.6 663.05 L 1181.79 661.996 z"/>
<path transform="translate(0,0)" fill="rgb(196,163,123)" d="M 1182.6 663.05 C 1188.69 660.878 1194.26 658.571 1200.2 656.101 C 1201.67 662.388 1203.31 666.571 1199.96 672.259 C 1191.64 678.125 1186.64 669.56 1182.6 663.05 z"/>
<path transform="translate(0,0)" fill="rgb(54,45,34)" d="M 1181.79 661.996 C 1186.99 659.022 1194.22 656.106 1200.09 654.905 L 1200.2 656.101 C 1194.26 658.571 1188.69 660.878 1182.6 663.05 L 1181.79 661.996 z"/>
<path transform="translate(0,0)" fill="rgb(196,163,123)" d="M 1080.27 703.615 C 1076.94 697.184 1071.62 682.325 1077.63 676.453 C 1087.89 674.446 1095.15 689.807 1098.88 697.265 L 1099.08 698.302 C 1108.02 733.691 1081.3 716.784 1081.54 705.181 L 1080.27 703.615 z"/>
<path transform="translate(0,0)" fill="rgb(196,163,123)" d="M 1099.08 698.302 C 1108.02 733.691 1081.3 716.784 1081.54 705.181 C 1084.61 704.454 1095.59 699.723 1099.08 698.302 z"/>
<path transform="translate(0,0)" fill="rgb(54,45,34)" d="M 1080.27 703.615 C 1087.11 701.393 1090.99 698.719 1098.88 697.265 L 1099.08 698.302 C 1095.59 699.723 1084.61 704.454 1081.54 705.181 L 1080.27 703.615 z"/>
<path transform="translate(0,0)" fill="rgb(196,163,123)" d="M 1131.36 682.625 C 1127.16 675.698 1121.91 662.231 1128.63 655.507 C 1139.81 651.711 1145.97 667.2 1149.01 675.482 L 1149.99 677.07 C 1151.48 683.742 1154.44 692.259 1147.3 696.616 C 1139.53 697.98 1135.72 690.716 1132.1 685.087 L 1131.36 682.625 z"/>
<path transform="translate(0,0)" fill="rgb(196,163,123)" d="M 1149.01 675.482 L 1149.99 677.07 C 1151.48 683.742 1154.44 692.259 1147.3 696.616 C 1139.53 697.98 1135.72 690.716 1132.1 685.087 L 1131.36 682.625 C 1136.91 679.787 1143.14 677.66 1149.01 675.482 z"/>
<path transform="translate(0,0)" fill="rgb(54,45,34)" d="M 1149.01 675.482 L 1149.99 677.07 C 1145.59 678.818 1135.51 682.484 1132.1 685.087 L 1131.36 682.625 C 1136.91 679.787 1143.14 677.66 1149.01 675.482 z"/>
<path transform="translate(0,0)" fill="rgb(0,0,0)" d="M 1201.45 597.162 L 1214.45 590.457 L 1222.08 610.094 L 1232.11 605.868 C 1234.56 612.189 1237.1 618.479 1239.71 624.734 L 1230.23 629.11 C 1232.24 634.065 1240.08 659.539 1248.39 655.74 C 1249.46 655.253 1250.62 654.287 1251.53 653.535 C 1254.5 656.983 1258.15 665.402 1260.27 669.818 C 1237.36 692.183 1229.36 661.342 1221.46 644.605 L 1215.63 648.615 L 1213.84 648.173 C 1210.95 645.313 1209.69 641.216 1208.06 637.356 L 1211.89 637.685 C 1209.27 632.264 1203.72 623.277 1205.41 618.008 L 1207.99 616.523 C 1209.07 611.905 1203.64 601.925 1201.45 597.162 z"/>
<path transform="translate(0,0)" fill="rgb(200,169,137)" d="M 1211.89 637.685 L 1215.94 635.771 C 1220 637.387 1220.23 640.632 1221.46 644.605 L 1215.63 648.615 L 1213.84 648.173 C 1210.95 645.313 1209.69 641.216 1208.06 637.356 L 1211.89 637.685 z"/>
<path transform="translate(0,0)" fill="rgb(54,45,34)" d="M 1176.88 432.224 L 1177.54 433.069 C 1175.64 435.802 1142.91 443.866 1136.7 445.867 C 1084.12 462.822 1033.7 485.841 986.453 514.459 C 985.513 513.013 985.73 513.799 986.09 511.998 C 993.376 506.897 1009.2 498.87 1017.71 494.329 C 1067.95 467.027 1121.43 446.161 1176.88 432.224 z"/>
<path transform="translate(0,0)" fill="rgb(54,45,34)" d="M 1228 784.074 L 1228.83 785.114 C 1225.27 789.449 1082.91 843.11 1066.24 849.341 L 1065.36 848.153 C 1066.44 846.828 1209.49 791.688 1228 784.074 z"/>
<path transform="translate(0,0)" fill="rgb(54,45,34)" d="M 1177.5 587.931 L 1179.02 588.624 C 1176.93 591.268 1119.56 612.579 1111.52 616.081 L 1110.33 615.437 C 1112.62 612.314 1168.86 591.309 1177.5 587.931 z"/>
<path transform="translate(0,0)" fill="rgb(54,45,34)" d="M 1189.45 384.869 C 1190.29 384.808 1191.01 385.132 1191.91 385.381 C 1189.97 387.54 1153.62 400.211 1148.2 402.194 C 1146.56 402.894 1147.41 402.71 1145.58 402.41 C 1148.09 398.724 1182.56 387.407 1189.45 384.869 z"/>
<path transform="translate(0,0)" fill="rgb(54,45,34)" d="M 1155.5 480.221 L 1155.6 481.037 C 1153.05 484.047 1119.3 497.093 1113.56 499.422 L 1113.44 498.229 C 1115.47 495.246 1149.86 482.444 1155.5 480.221 z"/>
<path transform="translate(0,0)" fill="rgb(196,163,123)" d="M 1390.85 351.642 C 1390.42 349.728 1390.6 349.272 1390.82 347.344 C 1398.55 334.743 1425.97 316.03 1440 322.208 L 1441.73 321.66 C 1445.43 321.584 1447.1 321.255 1450.29 323.277 L 1452.28 326.772 L 1453.84 324.271 C 1463.71 320.157 1514.19 354.8 1518.62 366.451 C 1518.81 366.951 1519.81 369.881 1520.05 370.634 L 1521.89 368.458 C 1531.17 373.146 1560.88 414.882 1565.88 425.749 C 1568.49 427.526 1571.16 430.796 1571.24 434.05 C 1601.39 478.77 1622.96 560.602 1621.76 614.485 L 1621 615.414 L 1620.79 615.379 L 1618.99 617.054 C 1626.8 639.937 1610.17 694.608 1592.56 711.307 C 1591.77 711.239 1590.72 711.214 1590.01 711 L 1588.77 712.036 C 1587.3 726.317 1540.76 732.774 1532.05 722.117 L 1530.4 722.406 L 1528.45 723.461 C 1508.37 718.274 1456.96 683.393 1450.82 663.92 L 1447.34 662.418 C 1441.99 658.245 1426.65 634.961 1422.89 628.958 C 1390.38 576.902 1371.26 517.612 1367.22 456.371 C 1366.8 449.021 1366.17 429.758 1367.73 422.99 L 1369.72 421.25 C 1365.37 407.181 1378.01 361.115 1388.26 351.918 L 1390.85 351.642 z"/>
<path transform="translate(0,0)" fill="rgb(54,45,34)" d="M 1521.89 368.458 L 1522.09 369.561 C 1524.76 384.04 1532.39 408.488 1536.36 423.985 L 1564.74 533.547 C 1570.66 556.363 1576.19 575.711 1581.18 598.98 C 1577.47 596.02 1546.36 471.824 1542.62 457.458 L 1527.45 399.107 C 1525.43 391.314 1521.55 378.26 1520.05 370.634 L 1521.89 368.458 z"/>
<path transform="translate(0,0)" fill="rgb(54,45,34)" d="M 1388.26 351.918 L 1390.85 351.642 C 1396.04 364.551 1403.05 392.094 1407.32 406.767 L 1436.13 504.437 L 1449.65 550.947 C 1451.37 556.87 1455.44 568.632 1455.87 574.046 L 1454.87 574.243 C 1450.95 565.827 1441.7 531.459 1438.65 521.017 L 1405.93 410.218 C 1401.43 394.956 1393.96 366.364 1388.65 352.895 L 1388.26 351.918 z"/>
<path transform="translate(0,0)" fill="rgb(54,45,34)" d="M 1530.4 722.406 C 1524.72 699.711 1483.76 527.889 1485.38 516.617 C 1488.93 524.7 1496.54 563.273 1498.61 573.236 C 1503.95 598.275 1509.45 623.28 1515.12 648.248 C 1518.42 662.972 1521.85 677.669 1525.39 692.339 C 1526.8 698.107 1531.96 717.368 1532.05 722.117 L 1530.4 722.406 z"/>
<path transform="translate(0,0)" fill="rgb(54,45,34)" d="M 1453.84 324.271 L 1454 325.276 C 1456.03 336.978 1465.66 366.283 1469.42 378.86 C 1478.82 410.552 1488.05 442.298 1497.09 474.096 C 1500.13 484.724 1507.31 504.766 1507.04 514.639 C 1493.19 473.137 1482.13 427.537 1469.07 385.523 C 1466.94 378.676 1452.65 331.295 1452.28 326.772 L 1453.84 324.271 z"/>
<path transform="translate(0,0)" fill="rgb(54,45,34)" d="M 1447.34 662.418 L 1447.14 661.309 C 1443.66 642.909 1405.48 535.062 1407.55 526.968 C 1413.63 540.71 1422.82 573.796 1427.35 589.239 C 1434.53 613.682 1444.02 639.828 1450.82 663.92 L 1447.34 662.418 z"/>
<path transform="translate(0,0)" fill="rgb(54,45,34)" d="M 1618.99 617.054 C 1610.5 590.861 1603.01 563.29 1594.84 536.907 C 1592.22 528.448 1582.39 497.913 1581.76 490.905 C 1586.73 496.799 1615.79 599.436 1620.79 615.379 L 1618.99 617.054 z"/>
<path transform="translate(0,0)" fill="rgb(54,45,34)" d="M 1588.77 712.036 C 1584.45 704.219 1558.21 617.981 1558.48 611.49 C 1560.77 615.909 1569.54 644.966 1571.44 651.513 C 1577.06 670.86 1584.86 691.877 1590.01 711 L 1588.77 712.036 z"/>
<path transform="translate(0,0)" fill="rgb(54,45,34)" d="M 1441.73 321.66 C 1448.55 352.082 1454.78 382.635 1460.4 413.301 C 1456.94 408.691 1440.94 330.651 1440 322.208 L 1441.73 321.66 z"/>
<path transform="translate(0,0)" fill="rgb(54,45,34)" d="M 1367.73 422.99 L 1369.72 421.25 C 1373.49 432.221 1392.59 487.285 1392.64 495.341 C 1381.61 473.412 1376.45 441.207 1367.73 422.99 z"/>
<path transform="translate(0,0)" fill="rgb(89,64,42)" d="M 1565.88 425.749 C 1568.49 427.526 1571.16 430.796 1571.24 434.05 C 1571.12 442.566 1580.75 459.534 1579.51 468.35 L 1579.06 467.426 L 1579.96 468.358 L 1579.64 468.783 C 1579.63 468.165 1576.71 461.908 1575.86 459.111 L 1565.88 425.749 z"/>
<path transform="translate(0,0)" fill="rgb(54,45,34)" d="M 1501.33 396.517 C 1506.04 400.061 1516.63 435.817 1518.76 443.489 C 1518.23 443.393 1517.14 442.8 1516.58 442.534 C 1512.78 433.225 1503.5 406.025 1501.33 396.517 z"/>
<path transform="translate(0,0)" fill="rgb(100,99,99)" d="M 1235.38 353.151 C 1236.3 363.633 1239.28 372.085 1252.18 372.108 C 1265.52 372.132 1266.68 354.165 1258.16 347.358 C 1253.04 343.263 1244.79 348.005 1239.26 349.058 C 1239.16 346.295 1239.27 347.061 1240.93 344.252 C 1246.5 340.095 1272.42 335.407 1280.69 333.837 C 1269.78 354.228 1262.25 371.622 1259.24 394.798 C 1244.01 511.836 1295.85 636.459 1362.8 728.954 C 1354.71 735.018 1336.95 744.555 1327.62 749.898 C 1300.06 715.721 1276.02 671.253 1258.33 630.242 C 1230.79 566.369 1211.9 487.207 1218.73 417.212 C 1221.11 392.833 1226.77 375.5 1235.38 353.151 z"/>
<path transform="translate(0,0)" fill="rgb(56,54,54)" d="M 1241.41 494.694 C 1249.23 493.706 1256.4 499.172 1257.52 506.978 C 1258.65 514.784 1253.31 522.049 1245.52 523.306 C 1240.36 524.138 1235.16 522.124 1231.91 518.037 C 1228.65 513.949 1227.86 508.425 1229.83 503.587 C 1231.8 498.748 1236.22 495.349 1241.41 494.694 z"/>
<path transform="translate(0,0)" fill="rgb(100,99,99)" d="M 1239.29 501.507 C 1243.45 499.403 1248.53 500.996 1250.74 505.1 C 1252.96 509.204 1251.49 514.323 1247.45 516.64 C 1244.74 518.194 1241.4 518.154 1238.72 516.536 C 1236.05 514.917 1234.46 511.976 1234.58 508.853 C 1234.7 505.73 1236.5 502.917 1239.29 501.507 z"/>
<path transform="translate(0,0)" fill="rgb(56,54,54)" d="M 1273.64 600.509 C 1281.33 599.892 1288.09 605.534 1288.86 613.203 C 1289.64 620.872 1284.13 627.75 1276.48 628.676 C 1271.39 629.292 1266.37 627.11 1263.34 622.97 C 1260.32 618.83 1259.77 613.38 1261.91 608.72 C 1264.05 604.061 1268.53 600.92 1273.64 600.509 z"/>
<path transform="translate(0,0)" fill="rgb(100,99,99)" d="M 1272.91 606.538 C 1275.83 605.85 1278.9 606.791 1280.94 609.001 C 1282.97 611.21 1283.66 614.345 1282.73 617.203 C 1281.81 620.06 1279.41 622.198 1276.47 622.795 C 1272.01 623.7 1267.66 620.861 1266.68 616.42 C 1265.71 611.978 1268.48 607.578 1272.91 606.538 z"/>
<path transform="translate(0,0)" fill="rgb(56,54,54)" d="M 1231.71 413.347 C 1238.95 410.759 1246.92 414.478 1249.58 421.686 C 1252.24 428.893 1248.61 436.901 1241.43 439.641 C 1236.72 441.438 1231.4 440.566 1227.51 437.358 C 1223.62 434.149 1221.76 429.098 1222.63 424.131 C 1223.49 419.164 1226.96 415.046 1231.71 413.347 z"/>
<path transform="translate(0,0)" fill="rgb(100,99,99)" d="M 1234.38 418.69 C 1238.72 417.549 1243.18 420.128 1244.35 424.465 C 1245.52 428.802 1242.97 433.272 1238.64 434.473 C 1234.27 435.687 1229.75 433.108 1228.56 428.728 C 1227.38 424.349 1229.99 419.843 1234.38 418.69 z"/>
<path transform="translate(0,0)" fill="rgb(56,54,54)" d="M 1320 700.483 C 1327.09 697.84 1335 701.335 1337.82 708.36 C 1340.64 715.385 1337.34 723.377 1330.39 726.371 C 1325.73 728.376 1320.36 727.699 1316.35 724.603 C 1312.33 721.507 1310.32 716.479 1311.08 711.468 C 1311.83 706.457 1315.25 702.252 1320 700.483 z"/>
<path transform="translate(0,0)" fill="rgb(100,99,99)" d="M 1323.21 705.525 C 1327.56 704.547 1331.91 707.189 1333.05 711.504 C 1334.18 715.818 1331.7 720.26 1327.43 721.556 C 1324.53 722.438 1321.37 721.661 1319.21 719.532 C 1317.04 717.403 1316.22 714.261 1317.05 711.341 C 1317.88 708.421 1320.24 706.19 1323.21 705.525 z"/>
<path transform="translate(0,0)" fill="rgb(100,99,99)" d="M 940.811 495.092 C 934.903 513.383 928.901 531.249 926.632 550.436 C 913.505 661.403 959.532 777.731 1025.14 864.624 C 1010.8 867.355 996.076 869.633 981.854 872.46 C 924.29 797.725 880.61 682.162 887.697 587.367 C 888.634 574.838 893.06 541.409 900.364 532.13 C 907.879 522.582 930.437 504.041 940.811 495.092 z"/>
<path transform="translate(0,0)" fill="rgb(56,54,54)" d="M 944.931 763.589 C 952.378 762.086 959.637 766.894 961.159 774.337 C 962.68 781.781 957.891 789.052 950.452 790.593 C 942.985 792.139 935.682 787.329 934.155 779.858 C 932.627 772.388 937.456 765.097 944.931 763.589 z"/>
<path transform="translate(0,0)" fill="rgb(100,99,99)" d="M 945.398 769.515 C 949.435 768.382 953.649 770.628 954.958 774.612 C 956.267 778.596 954.207 782.904 950.284 784.386 C 947.589 785.404 944.553 784.861 942.379 782.972 C 940.204 781.083 939.241 778.153 939.872 775.342 C 940.502 772.532 942.625 770.294 945.398 769.515 z"/>
<path transform="translate(0,0)" fill="rgb(56,54,54)" d="M 899.988 608.496 C 904.689 606.784 909.948 607.769 913.711 611.065 C 917.474 614.361 919.144 619.445 918.066 624.33 C 916.989 629.215 913.337 633.125 908.537 634.533 C 901.435 636.616 893.962 632.686 891.653 625.654 C 889.345 618.623 893.034 611.028 899.988 608.496 z"/>
<path transform="translate(0,0)" fill="rgb(100,99,99)" d="M 901.247 614.543 C 905.092 612.608 909.779 614.141 911.737 617.975 C 913.694 621.809 912.189 626.505 908.366 628.485 C 904.512 630.482 899.768 628.961 897.794 625.095 C 895.82 621.229 897.369 616.494 901.247 614.543 z"/>
<path transform="translate(0,0)" fill="rgb(56,54,54)" d="M 985.093 836.514 C 989.774 834.759 995.04 835.711 998.81 838.994 C 1002.58 842.278 1004.25 847.364 1003.15 852.242 C 1002.05 857.119 998.37 861.003 993.558 862.357 C 986.538 864.332 979.209 860.423 976.939 853.493 C 974.669 846.563 978.265 839.075 985.093 836.514 z"/>
<path transform="translate(0,0)" fill="rgb(100,99,99)" d="M 988.955 841.463 C 993.047 841.026 996.769 843.86 997.436 847.921 C 998.104 851.982 995.485 855.858 991.469 856.754 C 988.66 857.381 985.735 856.403 983.869 854.212 C 982.003 852.021 981.503 848.977 982.569 846.304 C 983.635 843.631 986.093 841.768 988.955 841.463 z"/>
<path transform="translate(0,0)" fill="rgb(56,54,54)" d="M 915.214 688.406 C 922.141 686.049 929.682 689.662 932.186 696.538 C 934.69 703.413 931.239 711.029 924.419 713.68 C 919.875 715.445 914.733 714.615 910.976 711.509 C 907.219 708.404 905.436 703.509 906.315 698.714 C 907.195 693.92 910.599 689.976 915.214 688.406 z"/>
<path transform="translate(0,0)" fill="rgb(100,99,99)" d="M 918.156 693.531 C 922.18 692.873 926.018 695.47 926.903 699.451 C 927.788 703.431 925.413 707.41 921.489 708.519 C 918.745 709.295 915.797 708.488 913.831 706.424 C 911.864 704.36 911.2 701.377 912.107 698.674 C 913.014 695.971 915.342 693.992 918.156 693.531 z"/>
<path transform="translate(0,0)" fill="rgb(56,54,54)" d="M 904.28 539.453 C 911.077 536.758 918.779 540.009 921.59 546.759 C 924.401 553.509 921.283 561.266 914.582 564.192 C 910.144 566.13 905.006 565.523 901.142 562.604 C 897.278 559.686 895.289 554.909 895.939 550.111 C 896.59 545.312 899.778 541.238 904.28 539.453 z"/>
<path transform="translate(0,0)" fill="rgb(100,99,99)" d="M 905.483 545.587 C 909.058 543.54 913.615 544.761 915.687 548.322 C 917.759 551.882 916.57 556.447 913.024 558.544 C 909.443 560.662 904.822 559.458 902.729 555.862 C 900.637 552.267 901.873 547.655 905.483 545.587 z"/>
<path transform="translate(0,0)" fill="rgb(196,163,123)" d="M 885.146 663.248 L 886.044 665.205 C 897.444 731.93 928.093 811.006 968.883 865.906 L 969.905 867.281 C 957.902 871.136 934.711 875.445 921.588 878.307 C 915.409 878.378 907.649 880.629 901.33 881.435 L 900.142 880.026 C 892.254 867.473 853.36 809.873 856.897 798.163 L 855.466 797.065 C 847.874 788.898 827.909 712.3 832.13 702.433 L 831.49 700.888 C 841.321 692.635 873.96 670.861 885.146 663.248 z"/>
<path transform="translate(0,0)" fill="rgb(89,64,42)" d="M 900.142 880.026 C 905.275 878.475 917.702 876.369 923.705 875.181 C 938.8 872.264 953.86 869.172 968.883 865.906 L 969.905 867.281 C 957.902 871.136 934.711 875.445 921.588 878.307 C 915.409 878.378 907.649 880.629 901.33 881.435 L 900.142 880.026 z"/>
<path transform="translate(0,0)" fill="rgb(54,45,34)" d="M 885.146 663.248 L 886.044 665.205 C 878.63 670.461 837.243 700.835 832.13 702.433 L 831.49 700.888 C 841.321 692.635 873.96 670.861 885.146 663.248 z"/>
<path transform="translate(0,0)" fill="rgb(54,45,34)" d="M 855.466 797.065 C 861.523 794.402 901.305 776.296 905.255 776.759 C 900.747 780.197 863.399 796.153 856.897 798.163 L 855.466 797.065 z"/>
<path transform="translate(0,0)" fill="rgb(54,45,34)" d="M 933.531 828.093 L 934.975 828.086 L 935.485 829.179 C 930.95 831.46 911.229 836.661 905.237 838.356 L 904.161 838.649 L 902.643 837.694 C 904.175 835.386 928.984 829.315 933.531 828.093 z"/>
<path transform="translate(0,0)" fill="rgb(54,45,34)" d="M 877.652 724.088 L 878.355 724.759 C 876.51 727.475 861.385 734.089 857.3 736.035 L 856.76 735.165 L 857.224 733.739 C 862.45 730.526 871.792 726.696 877.652 724.088 z"/>
<path transform="translate(0,0)" fill="rgb(196,163,123)" d="M 1289.64 331.579 C 1315.88 325.631 1358.65 319.496 1385.23 317.513 C 1368.47 328.638 1368.71 332.673 1356.89 345.948 L 1355.62 347.952 C 1344.06 370.27 1339.71 382.16 1334.64 406.941 L 1334.15 408.943 C 1332.56 428.717 1330.72 447.671 1332.19 467.541 C 1332.44 470.791 1333.48 479.546 1332.01 481.882 L 1329.3 482.473 C 1311.45 485.171 1284.61 490.79 1267.45 495.942 C 1263.09 463.244 1259.1 432.075 1264.27 399.101 C 1265.68 390.133 1270.52 362.79 1276.97 357.219 L 1276.54 355.172 C 1278.41 347.922 1285.35 337.912 1289.64 331.579 z"/>
<path transform="translate(0,0)" fill="rgb(196,163,123)" d="M 1289.64 331.579 C 1315.88 325.631 1358.65 319.496 1385.23 317.513 C 1368.47 328.638 1368.71 332.673 1356.89 345.948 L 1355.62 347.952 C 1323.89 349.341 1307.17 347.484 1276.97 357.219 L 1276.54 355.172 C 1278.41 347.922 1285.35 337.912 1289.64 331.579 z"/>
<path transform="translate(0,0)" fill="rgb(54,45,34)" d="M 1276.54 355.172 C 1282.52 353.593 1287.66 351.481 1293.8 350.227 C 1313.89 346.122 1336.38 345.972 1356.89 345.948 L 1355.62 347.952 C 1323.89 349.341 1307.17 347.484 1276.97 357.219 L 1276.54 355.172 z"/>
<path transform="translate(0,0)" fill="rgb(54,45,34)" d="M 1334.15 408.943 C 1313.44 411.469 1291.35 411.551 1270.24 414.718 C 1279.22 409.476 1321.79 407.45 1334.64 406.941 L 1334.15 408.943 z"/>
<path transform="translate(0,0)" fill="rgb(54,45,34)" d="M 1301.64 452.298 C 1303.69 451.859 1303.54 451.898 1305.5 452.695 C 1303.6 454.748 1279.93 457.974 1275.23 458.707 C 1273.42 459.166 1272.21 458.906 1270.36 458.724 C 1272.88 456.25 1296.52 453.103 1301.64 452.298 z"/>
<path transform="translate(0,0)" fill="rgb(196,163,123)" d="M 1440.7 696.892 C 1371.36 633.465 1327.6 509.45 1339.6 416.45 C 1344.35 379.591 1360.88 332.526 1398.04 317.38 C 1411.45 311.917 1423.25 313.067 1437 314.94 C 1383.56 321.809 1365.12 370.991 1361.82 418.254 C 1355.01 515.84 1392 607.091 1454.13 680.382 C 1455.07 687.236 1462.82 688.936 1462.3 693.091 C 1454.85 694.412 1452 694.608 1444.89 697.113 C 1445.06 695.378 1444.97 694.684 1444.48 693.011 L 1443.5 692.625 C 1442.28 695.463 1442.84 695.328 1440.7 696.892 z"/>
<path transform="translate(0,0)" fill="rgb(196,163,123)" d="M 1267.45 495.942 C 1284.61 490.79 1311.45 485.171 1329.3 482.473 L 1331.72 484.421 L 1333.38 485.414 C 1339.74 519.002 1343.94 548.548 1358.21 580.233 C 1359.37 582.817 1364.69 595.53 1364.3 597.625 C 1352.72 602.572 1340.96 607.107 1329.06 611.222 C 1322.95 613.369 1311.67 616.843 1306.5 619.216 C 1293.48 606.499 1271.62 516.968 1267.96 497.289 L 1267.45 495.942 z"/>
<path transform="translate(0,0)" fill="rgb(54,45,34)" d="M 1267.45 495.942 C 1284.61 490.79 1311.45 485.171 1329.3 482.473 L 1331.72 484.421 C 1313.18 487.301 1294.94 491.641 1276.61 495.591 C 1273.76 496.205 1270.87 497.037 1267.96 497.289 L 1267.45 495.942 z"/>
<path transform="translate(0,0)" fill="rgb(196,163,123)" d="M 1306.5 619.216 C 1311.67 616.843 1322.95 613.369 1329.06 611.222 C 1340.96 607.107 1352.72 602.572 1364.3 597.625 L 1365.43 599.05 C 1377.72 615.839 1385.49 643.194 1401.02 659.948 C 1403.84 662.997 1419.9 684.35 1420.64 686.394 C 1419.23 687.58 1412.63 692.964 1411.87 693.987 C 1410.47 695.018 1407.6 696.867 1406.85 698.172 C 1403.99 699.971 1393.46 706.623 1392.08 709.215 C 1388.57 714.263 1374.84 722.406 1369.09 725.341 L 1368 724.647 C 1350.11 704.801 1315.86 645.699 1306.54 620.91 L 1306.5 619.216 z"/>
<path transform="translate(0,0)" fill="rgb(54,45,34)" d="M 1306.5 619.216 C 1311.67 616.843 1322.95 613.369 1329.06 611.222 C 1340.96 607.107 1352.72 602.572 1364.3 597.625 L 1365.43 599.05 C 1346.36 607.755 1326.68 615.061 1306.54 620.91 L 1306.5 619.216 z"/>
<path transform="translate(0,0)" fill="rgb(54,45,34)" d="M 1368 724.647 C 1375.44 719.645 1384.32 713.352 1392.08 709.215 C 1388.57 714.263 1374.84 722.406 1369.09 725.341 L 1368 724.647 z"/>
<path transform="translate(0,0)" fill="rgb(54,45,34)" d="M 1379.2 647.151 L 1379.66 647.639 L 1379.5 648.897 C 1367.05 655.482 1353.4 661.263 1340.48 666.998 L 1339.57 665.804 C 1342.22 663.25 1373.76 649.584 1379.2 647.151 z"/>
<path transform="translate(0,0)" fill="rgb(157,126,93)" d="M 921.588 878.307 C 934.711 875.445 957.902 871.136 969.905 867.281 L 973.821 872.765 C 992.463 896.896 1004.03 907.875 1024.53 928.703 L 1026.15 930.562 C 1044.07 943.276 1053.04 951.981 1073.12 964.029 C 1055.33 965.435 1015.75 968.731 998.995 965.031 C 991.272 963.326 967.517 947.636 959.929 942.404 L 957.959 939.667 C 946.008 935.518 909.38 892.969 901.33 881.435 C 907.649 880.629 915.409 878.378 921.588 878.307 z"/>
<path transform="translate(0,0)" fill="rgb(157,126,93)" d="M 1026.15 930.562 C 1044.07 943.276 1053.04 951.981 1073.12 964.029 C 1055.33 965.435 1015.75 968.731 998.995 965.031 C 991.272 963.326 967.517 947.636 959.929 942.404 C 963.219 941.202 974.526 939.88 978.593 939.202 C 994.195 936.599 1010.93 934.97 1026.15 930.562 z"/>
<path transform="translate(0,0)" fill="rgb(196,163,123)" d="M 921.588 878.307 C 934.711 875.445 957.902 871.136 969.905 867.281 L 973.821 872.765 C 968.419 875.513 926.194 880.45 921.588 878.307 z"/>
<path transform="translate(0,0)" fill="rgb(54,45,34)" d="M 1024.53 928.703 L 1026.15 930.562 C 1010.93 934.97 994.195 936.599 978.593 939.202 C 974.526 939.88 963.219 941.202 959.929 942.404 L 957.959 939.667 C 980.263 936.736 1002.47 933.08 1024.53 928.703 z"/>
<path transform="translate(0,0)" fill="rgb(73,73,73)" d="M 1362.8 728.954 C 1395.91 768.309 1428.43 799.555 1476.15 820.019 C 1466.21 827.238 1454.4 836.435 1444.36 842.972 C 1403.34 831.975 1352.05 783.385 1327.62 749.898 C 1336.95 744.555 1354.71 735.018 1362.8 728.954 z"/>
<path transform="translate(0,0)" fill="rgb(56,54,54)" d="M 1389.05 774.221 C 1396.77 774.049 1403.23 780.042 1403.63 787.75 C 1404.03 795.458 1398.24 802.091 1390.54 802.725 C 1385.36 803.153 1380.35 800.725 1377.47 796.389 C 1374.6 792.054 1374.31 786.496 1376.72 781.884 C 1379.13 777.272 1383.85 774.336 1389.05 774.221 z"/>
<path transform="translate(0,0)" fill="rgb(73,73,73)" d="M 1386.82 780.577 C 1391.21 779.139 1395.93 781.55 1397.35 785.951 C 1398.76 790.352 1396.32 795.063 1391.92 796.453 C 1387.54 797.832 1382.87 795.418 1381.47 791.051 C 1380.07 786.684 1382.46 782.003 1386.82 780.577 z"/>
<path transform="translate(0,0)" fill="rgb(56,54,54)" d="M 1433.9 809.712 C 1441.43 807.86 1449.04 812.491 1450.84 820.034 C 1452.65 827.577 1447.97 835.151 1440.42 836.914 C 1432.93 838.662 1425.43 834.033 1423.64 826.553 C 1421.85 819.073 1426.43 811.549 1433.9 809.712 z"/>
<path transform="translate(0,0)" fill="rgb(73,73,73)" d="M 1435.05 815.389 C 1439.36 814.196 1443.82 816.696 1445.05 820.992 C 1446.28 825.288 1443.82 829.774 1439.54 831.044 C 1435.2 832.331 1430.64 829.833 1429.4 825.482 C 1428.15 821.132 1430.69 816.598 1435.05 815.389 z"/>
<path transform="translate(0,0)" fill="rgb(196,163,123)" d="M 889.424 541.247 C 887.326 549.482 883.274 577.889 880.419 581.318 L 880.975 583.799 C 882.414 587.022 881.216 609.397 880.981 614.535 C 880.31 629.173 885.16 650.096 885.146 663.248 C 873.96 670.861 841.321 692.635 831.49 700.888 C 826.522 693.656 827.286 627.327 835.899 620.031 L 834.277 618.256 C 831.039 593.52 872.822 558.051 889.424 541.247 z"/>
<path transform="translate(0,0)" fill="rgb(196,163,123)" d="M 889.424 541.247 C 887.326 549.482 883.274 577.889 880.419 581.318 L 880.975 583.799 C 864.687 595.786 850.543 609.1 835.899 620.031 L 834.277 618.256 C 831.039 593.52 872.822 558.051 889.424 541.247 z"/>
<path transform="translate(0,0)" fill="rgb(54,45,34)" d="M 880.419 581.318 L 880.975 583.799 C 864.687 595.786 850.543 609.1 835.899 620.031 L 834.277 618.256 C 847.891 608.786 863.832 592.941 880.419 581.318 z"/>
<path transform="translate(0,0)" fill="rgb(54,45,34)" d="M 863.891 632.938 L 864.689 633.82 C 863.683 636.293 839.264 653.246 835.18 656.193 L 834.2 655.192 C 836.645 651.049 858.98 636.282 863.891 632.938 z"/>
<path transform="translate(0,0)" fill="rgb(157,126,93)" d="M 1420.64 686.394 L 1421.63 687.659 C 1424.99 688.732 1427.82 692.211 1430.17 694.886 C 1444.28 710.937 1461.68 723.673 1479.5 735.275 C 1469.14 746.292 1458.05 756.593 1446.3 766.109 C 1442.52 769.194 1428.23 779.386 1425.82 782.295 C 1417.86 779.684 1372.75 733.813 1369.09 725.341 C 1374.84 722.406 1388.57 714.263 1392.08 709.215 C 1393.46 706.623 1403.99 699.971 1406.85 698.172 C 1407.6 696.867 1410.47 695.018 1411.87 693.987 C 1412.63 692.964 1419.23 687.58 1420.64 686.394 z"/>
<path transform="translate(0,0)" fill="rgb(54,45,34)" d="M 1392.08 709.215 C 1393.46 706.623 1403.99 699.971 1406.85 698.172 C 1404.45 702.768 1397.93 706.997 1393.39 709.35 L 1392.08 709.215 z"/>
<path transform="translate(0,0)" fill="rgb(89,64,42)" d="M 1420.64 686.394 L 1421.63 687.659 C 1418.33 690.911 1417.39 692.062 1413.25 694.208 L 1411.87 693.987 C 1412.63 692.964 1419.23 687.58 1420.64 686.394 z"/>
<path transform="translate(0,0)" fill="rgb(73,73,73)" d="M 1025.14 864.624 C 1044.37 890.295 1074.47 919.397 1100.84 937.067 C 1111.89 944.468 1127.14 952.749 1139 959.696 C 1126.45 960.779 1100.79 963.39 1089.65 962.652 C 1076.33 961.769 1047.33 940.067 1037.04 931.114 C 1022.91 918.827 991.601 888.547 981.854 872.46 C 996.076 869.633 1010.8 867.355 1025.14 864.624 z"/>
<path transform="translate(0,0)" fill="rgb(56,54,54)" d="M 1034.11 895.383 C 1041.13 893.178 1048.64 896.91 1051.12 903.839 C 1053.6 910.767 1050.17 918.419 1043.35 921.174 C 1038.69 923.057 1033.37 922.236 1029.49 919.036 C 1025.61 915.836 1023.8 910.77 1024.76 905.835 C 1025.72 900.9 1029.31 896.889 1034.11 895.383 z"/>
<path transform="translate(0,0)" fill="rgb(73,73,73)" d="M 1037.07 901.642 C 1040.97 900.751 1044.85 903.16 1045.77 907.042 C 1046.7 910.924 1044.33 914.828 1040.45 915.791 C 1036.53 916.767 1032.56 914.355 1031.62 910.422 C 1030.69 906.49 1033.13 902.545 1037.07 901.642 z"/>
<path transform="translate(0,0)" fill="rgb(157,126,93)" d="M 1479.5 735.275 L 1480.89 736.011 C 1494.73 742.685 1506.48 749.137 1521.78 750.929 C 1524.54 751.253 1529.35 751.805 1531.05 753.857 L 1532.32 755.31 C 1538.08 750.272 1547.25 751.963 1557.22 749.159 C 1535.73 769.839 1506.22 797.096 1482.26 814.852 C 1468.57 810.662 1434.94 794.402 1426.84 783.478 L 1425.82 782.295 C 1428.23 779.386 1442.52 769.194 1446.3 766.109 C 1458.05 756.593 1469.14 746.292 1479.5 735.275 z"/>
<path transform="translate(0,0)" fill="rgb(54,45,34)" d="M 1531.05 753.857 L 1532.32 755.31 C 1520.57 769.061 1489.86 798.367 1474.11 806.137 C 1478.73 801.013 1490.23 792.279 1496.15 787.286 C 1508.59 777.01 1520.25 765.837 1531.05 753.857 z"/>
<path transform="translate(0,0)" fill="rgb(54,45,34)" d="M 1479.5 735.275 L 1480.89 736.011 C 1474.62 746.741 1438.63 776.102 1426.84 783.478 L 1425.82 782.295 C 1428.23 779.386 1442.52 769.194 1446.3 766.109 C 1458.05 756.593 1469.14 746.292 1479.5 735.275 z"/>
<path transform="translate(0,0)" fill="rgb(157,126,93)" d="M 1454.13 680.382 C 1480.61 705.894 1514.04 733.011 1553.32 732.903 C 1562.63 732.877 1571.12 730.462 1579.99 727.971 C 1561.55 742.232 1549.71 748.883 1525 745.666 C 1495.4 741.814 1460.99 718.135 1440.7 696.892 C 1442.84 695.328 1442.28 695.463 1443.5 692.625 L 1444.48 693.011 C 1444.97 694.684 1445.06 695.378 1444.89 697.113 C 1452 694.608 1454.85 694.412 1462.3 693.091 C 1462.82 688.936 1455.07 687.236 1454.13 680.382 z"/>
<path transform="translate(0,0)" fill="rgb(100,99,99)" d="M 989.026 1193.43 C 991.847 1193.01 992.261 1192.76 994.795 1193.78 C 994.347 1201.2 976.627 1265.09 973.249 1272.22 C 969.989 1258.06 966.425 1212.27 964.848 1196.37 C 972.622 1195.09 981.148 1194.31 989.026 1193.43 z"/>
<path transform="translate(0,0)" fill="rgb(100,99,99)" d="M 1245.67 352.46 C 1248.15 350.819 1251.33 350.695 1253.93 352.138 C 1256.53 353.582 1258.11 356.353 1258.03 359.325 C 1257.94 362.297 1256.21 364.975 1253.54 366.271 C 1249.76 368.099 1245.22 366.688 1243.14 363.045 C 1241.07 359.402 1242.17 354.774 1245.67 352.46 z"/>
<path transform="translate(0,0)" fill="url(#Gradient1)" d="M 557.749 843.341 C 558.921 843.149 560.461 842.972 561.547 842.606 L 562.89 843.787 L 563.958 843.17 L 562.971 842.663 L 564.761 843.018 C 563.372 844.647 562.944 845.141 561.282 846.608 L 561.003 847.423 C 547.952 852.262 532.657 856.329 519.155 860.239 C 525.395 856.918 551.742 845.118 557.749 843.341 z"/>
<path transform="translate(0,0)" fill="rgb(224,223,225)" fill-opacity="0.0823529" d="M 725.799 290.349 C 729.697 293.922 733.533 299.671 736.374 304.073 L 735.953 308.763 L 725.799 290.349 z"/>
<path transform="translate(0,0)" fill="rgb(73,73,73)" d="M 897.39 390.379 C 906.506 388.7 915.296 394.599 917.196 403.671 C 919.096 412.743 913.412 421.674 904.389 423.794 C 898.354 425.212 892.025 423.247 887.853 418.662 C 883.681 414.076 882.323 407.59 884.303 401.715 C 886.284 395.841 891.293 391.502 897.39 390.379 z"/>
<path transform="translate(0,0)" fill="rgb(100,99,99)" d="M 897.242 397.463 C 902.696 395.765 908.517 398.685 910.418 404.072 C 912.32 409.459 909.621 415.385 904.309 417.488 C 900.691 418.92 896.579 418.259 893.591 415.766 C 890.604 413.273 889.218 409.346 889.979 405.53 C 890.74 401.714 893.526 398.619 897.242 397.463 z"/>
<path transform="translate(0,0)" fill="rgb(56,54,54)" d="M 841.263 1296.46 C 848.964 1295.18 856.318 1300.15 858.002 1307.78 C 859.686 1315.4 855.11 1323.01 847.587 1325.09 C 842.353 1326.55 836.744 1324.99 833.007 1321.05 C 829.27 1317.1 828.015 1311.42 829.744 1306.27 C 831.473 1301.12 835.904 1297.35 841.263 1296.46 z"/>
<path transform="translate(0,0)" fill="rgb(100,99,99)" d="M 839.823 1303.39 C 844.029 1301.34 849.102 1303.06 851.188 1307.25 C 853.275 1311.44 851.595 1316.52 847.424 1318.64 C 843.204 1320.79 838.044 1319.09 835.932 1314.85 C 833.821 1310.61 835.568 1305.46 839.823 1303.39 z"/>
<path transform="translate(0,0)" fill="rgb(56,54,54)" d="M 983.644 1305.03 C 990.232 1305.51 996.09 1307.25 999.079 1313.89 C 1000.61 1317.36 1000.61 1321.31 999.064 1324.78 C 996.789 1329.93 993.204 1331.37 988.437 1333.42 C 984.978 1333.44 980.969 1333.46 977.837 1331.88 C 974.338 1330.12 971.704 1327.01 970.538 1323.27 C 969.551 1320.07 969.882 1316.61 971.456 1313.65 C 974.45 1307.95 978.062 1306.72 983.644 1305.03 z"/>
<path transform="translate(0,0)" fill="rgb(100,99,99)" d="M 982.057 1312.17 C 984.754 1311.14 987.797 1311.64 990.023 1313.48 C 992.25 1315.31 993.316 1318.21 992.814 1321.05 C 992.312 1323.89 990.32 1326.25 987.599 1327.21 C 983.461 1328.68 978.913 1326.55 977.396 1322.43 C 975.878 1318.31 977.956 1313.74 982.057 1312.17 z"/>
<path transform="translate(0,0)" fill="rgb(56,54,54)" d="M 916.205 1292.54 C 921.256 1291.25 926.611 1292.77 930.228 1296.52 C 933.845 1300.28 935.165 1305.69 933.684 1310.69 C 932.204 1315.69 928.152 1319.5 923.073 1320.68 C 915.342 1322.48 907.604 1317.72 905.722 1310.01 C 903.84 1302.3 908.515 1294.51 916.205 1292.54 z"/>
<path transform="translate(0,0)" fill="rgb(100,99,99)" d="M 915.918 1299.47 C 919.782 1297.43 924.569 1298.88 926.65 1302.72 C 928.731 1306.56 927.332 1311.36 923.513 1313.49 C 921.005 1314.88 917.942 1314.82 915.492 1313.33 C 913.041 1311.84 911.582 1309.14 911.67 1306.27 C 911.758 1303.41 913.38 1300.81 915.918 1299.47 z"/>
<path transform="translate(0,0)" fill="rgb(56,54,54)" d="M 1070.88 1293.53 C 1078.32 1291.81 1085.81 1296.25 1087.86 1303.61 C 1089.92 1310.97 1085.82 1318.65 1078.56 1321.03 C 1073.56 1322.67 1068.06 1321.44 1064.25 1317.82 C 1060.44 1314.19 1058.92 1308.77 1060.31 1303.69 C 1061.69 1298.62 1065.75 1294.72 1070.88 1293.53 z"/>
<path transform="translate(0,0)" fill="rgb(100,99,99)" d="M 1070.16 1300.6 C 1072.59 1299.21 1075.59 1299.25 1078 1300.69 C 1080.4 1302.14 1081.84 1304.77 1081.76 1307.57 C 1081.68 1310.38 1080.09 1312.92 1077.61 1314.22 C 1073.85 1316.19 1069.22 1314.79 1067.19 1311.07 C 1065.15 1307.36 1066.48 1302.7 1070.16 1300.6 z"/>
<path transform="translate(0,0)" fill="rgb(73,73,73)" d="M 1141.04 1301.56 C 1146.34 1300.57 1151.49 1303.94 1152.69 1309.2 C 1153.9 1314.46 1150.74 1319.73 1145.54 1321.15 C 1141.98 1322.12 1138.17 1321.06 1135.62 1318.39 C 1133.07 1315.73 1132.19 1311.88 1133.32 1308.37 C 1134.45 1304.85 1137.41 1302.24 1141.04 1301.56 z"/>
<path transform="translate(0,0)" fill="rgb(73,73,73)" d="M 876.604 1313.63 C 879.853 1311.88 883.807 1312.1 886.844 1314.19 C 889.88 1316.29 891.487 1319.91 891.003 1323.57 C 890.52 1327.23 888.028 1330.3 884.552 1331.54 C 879.713 1333.26 874.366 1330.96 872.283 1326.27 C 870.2 1321.57 872.083 1316.07 876.604 1313.63 z"/>
<path transform="translate(0,0)" fill="rgb(100,99,99)" d="M 879.539 1319.41 C 880.65 1318.79 882.015 1318.82 883.092 1319.5 C 884.17 1320.19 884.788 1321.4 884.701 1322.67 C 884.615 1323.95 883.838 1325.07 882.678 1325.6 C 880.986 1326.37 878.987 1325.67 878.145 1324.01 C 877.303 1322.35 877.918 1320.32 879.539 1319.41 z"/>
</svg>